HIERARCHY
ROOT pelvis
{
	OFFSET 0.00 0.00 0.00
	CHANNELS 6 Xposition Yposition Zposition Xrotation Yrotation Zrotation
	JOINT lfemur
	{
		OFFSET 0.00000 3.26371 0.00000
		CHANNELS 3 Xrotation Yrotation Zrotation
		JOINT ltibia
		{
			OFFSET 0.00000 0.00000 -17.39272
			CHANNELS 3 Xrotation Yrotation Zrotation
			JOINT lfoot
			{
				OFFSET 0.00000 0.00000 -17.72520
				CHANNELS 3 Xrotation Yrotation Zrotation
				JOINT ltoes
				{
					OFFSET 4.21806 0.00000 0.00000
					CHANNELS 3 Xrotation Yrotation Zrotation
				}
			}
		}
	}
	JOINT rfemur
	{
		OFFSET 0.00000 -3.26371 0.00000
		CHANNELS 3 Xrotation Yrotation Zrotation
		JOINT rtibia
		{
			OFFSET 0.00000 0.00000 -17.39272
			CHANNELS 3 Xrotation Yrotation Zrotation
			JOINT rfoot
			{
				OFFSET 0.00000 0.00000 -17.72520
				CHANNELS 3 Xrotation Yrotation Zrotation
				JOINT rtoes
				{
					OFFSET 4.21806 0.00000 0.00000
					CHANNELS 3 Xrotation Yrotation Zrotation
				}
			}
		}
	}
	JOINT thorax
	{
		OFFSET -1.96850 0.00000 6.16593
		CHANNELS 6 Xposition Yposition Zposition Xrotation Yrotation Zrotation
		JOINT head
		{
			OFFSET 0.00000 0.00000 18.21355
			CHANNELS 6 Xposition Yposition Zposition Xrotation Yrotation Zrotation
		}
		JOINT lclavicle
		{
			OFFSET 0.00000 0.00000 15.13875
			CHANNELS 3 Xrotation Yrotation Zrotation
			JOINT lhumerus
			{
				OFFSET 0.00000 7.18963 -1.52650
				CHANNELS 3 Xrotation Yrotation Zrotation
				JOINT lradius
				{
					OFFSET 0.00000 0.00000 -10.12096
					CHANNELS 3 Xrotation Yrotation Zrotation
					JOINT lhand
					{
						OFFSET 0.00000 0.00000 -10.45726
						CHANNELS 3 Xrotation Yrotation Zrotation
					}
				}
			}
		}
		JOINT rclavicle
		{
			OFFSET 0.00000 0.00000 15.13875
			CHANNELS 3 Xrotation Yrotation Zrotation
			JOINT rhumerus
			{
				OFFSET 0.00000 -7.18963 -1.52650
				CHANNELS 3 Xrotation Yrotation Zrotation
				JOINT rradius
				{
					OFFSET 0.00000 0.00000 -10.12096
					CHANNELS 3 Xrotation Yrotation Zrotation
					JOINT rhand
					{
						OFFSET 0.00000 0.00000 -10.45726
						CHANNELS 3 Xrotation Yrotation Zrotation
					}
				}
			}
		}
	}
}
MOTION
Frames: 20
Frame Time: 0.008333
 26.8328 -0.9058 22.4427 1.1840 9.0617 3.3431 13.2811 -71.2436 14.7242 -180.0000 72.3149 180.0000 -0.0000 -21.2474 9.2893 0.0000 -30.4658 -0.0000 -27.9001 -68.6955 -23.1002 -180.0000 70.4584 180.0000 0.0000 -21.2520 -6.3593 0.0000 -30.9141 -0.0000 27.8897 -1.1606 27.8840 -0.8477 -4.0357 3.5155 28.9786 -1.2777 46.4293 -1.0672 2.0642 -3.2883 -13.5921 -0.0000 -29.5171 71.1527 -49.6875 56.7967 0.0000 -81.6361 -52.4738 -2.8499 -6.2822 0.0000 6.0160 0.0000 22.8956 -81.9006 -38.3250 -57.7319 0.0000 -88.7586 39.4568 22.6954 -9.9231 0.0000
 26.8281 -0.9075 22.4360 1.0952 9.2018 3.3166 13.6568 -71.3995 15.0253 -180.0000 72.2735 180.0000 -0.0000 -21.1718 9.2591 0.0000 -30.7860 -0.0000 -27.8260 -68.8649 -23.0999 -180.0000 70.4570 180.0000 -0.0000 -21.3192 -6.4091 0.0000 -30.7639 -0.0000 27.8841 -1.1775 27.8767 -0.8672 -4.1835 3.5133 28.9883 -1.2669 46.4258 -0.8836 2.0488 -3.2555 -12.7538 -0.0000 -29.9668 70.4034 -49.2786 57.1893 0.0000 -82.2053 -52.7271 -3.5284 -6.6990 -0.0000 5.7778 0.0000 23.0390 -81.4401 -38.2241 -57.8737 -0.0000 -88.9345 39.6299 23.1815 -9.8537 0.0000
 26.8197 -0.8950 22.4347 1.0539 9.3109 3.2976 13.7840 -71.5159 15.1385 -180.0000 72.2597 180.0000 -0.0000 -21.1369 9.3230 0.0000 -30.8375 -0.0000 -27.9690 -68.9795 -23.2573 -180.0000 70.4731 180.0000 -0.0000 -21.2527 -6.3800 0.0000 -30.8571 -0.0000 27.8922 -1.1706 27.8875 -0.8119 -4.2871 3.5773 29.0003 -1.2576 46.4248 -0.8329 2.0391 -3.2757 -13.3268 -0.0000 -29.9027 71.1212 -49.2918 57.0126 0.0000 -81.8610 -52.4241 -3.1706 -6.4923 -0.0000 6.0279 0.0000 23.0191 -81.8002 -38.0910 -57.8300 0.0000 -88.8785 39.4487 23.0908 -9.7014 0.0000
 26.8185 -0.8933 22.4342 1.0469 9.4191 3.2122 14.1878 -71.5966 15.5757 -180.0000 72.2468 180.0000 -0.0000 -21.1271 9.3063 0.0000 -30.8674 -0.0000 -27.8727 -69.1376 -23.1491 -180.0000 70.4798 180.0000 -0.0000 -21.2864 -6.4031 0.0000 -30.7468 -0.0000 27.8950 -1.1586 27.8789 -0.7807 -4.3848 3.5594 29.0079 -1.2575 46.4256 -0.8826 2.0548 -3.1808 -12.8800 -0.0000 -29.8905 70.6253 -49.3515 57.1918 0.0000 -82.0922 -52.6483 -3.3225 -6.6105 0.0000 5.8030 -0.0000 22.9922 -81.5373 -38.3141 -57.8816 0.0000 -88.8668 39.6288 23.0822 -9.7726 0.0000
 26.8078 -0.8879 22.4314 1.0275 9.4909 3.2114 14.2405 -71.6968 15.6198 -180.0000 72.2485 180.0000 -0.0000 -21.0413 9.3658 0.0000 -30.9969 -0.0000 -27.9466 -69.2280 -23.2220 -180.0000 70.4781 180.0000 -0.0000 -21.2997 -6.4545 0.0000 -30.6343 -0.0000 27.8917 -1.1577 27.8844 -0.7683 -4.4196 3.6088 29.0170 -1.2474 46.4238 -0.8732 2.0203 -3.3385 -13.1515 -0.0000 -29.9189 71.0564 -49.3487 57.1560 0.0000 -81.8999 -52.5690 -3.0866 -6.5465 0.0000 5.9326 -0.0000 23.0161 -81.7884 -38.1467 -57.9373 0.0000 -88.8701 39.4851 23.1323 -9.7030 0.0000
 26.8082 -0.8842 22.4321 1.0248 9.4968 3.2060 14.3481 -71.6889 15.7521 -180.0000 72.2466 180.0000 -0.0000 -21.0199 9.3378 0.0000 -31.1038 -0.0000 -27.9446 -69.2317 -23.2089 -180.0000 70.4801 180.0000 -0.0000 -21.3143 -6.4199 0.0000 -30.5989 -0.0000 27.8949 -1.1513 27.8862 -0.7687 -4.4197 3.5960 29.0246 -1.2443 46.4245 -0.8383 2.0397 -3.3078 -13.1356 -0.0000 -29.9369 71.0532 -49.3696 57.1642 0.0000 -81.9110 -52.5497 -3.1717 -6.5332 -0.0000 5.9382 0.0000 23.0067 -81.7740 -38.1479 -57.9422 0.0000 -88.8651 39.5288 23.0344 -9.7250 0.0000
 26.8034 -0.8753 22.4339 1.0233 9.5176 3.1835 14.4058 -71.7085 15.8318 -180.0000 72.2499 180.0000 -0.0000 -20.9572 9.3732 0.0000 -31.2191 -0.0000 -27.9477 -69.2574 -23.1880 -180.0000 70.5029 180.0000 -0.0000 -21.3299 -6.4003 0.0000 -30.5630 -0.0000 27.8958 -1.1441 27.8866 -0.7522 -4.4267 3.5821 29.0321 -1.2432 46.4243 -0.8464 2.0505 -3.2540 -13.1040 -0.0000 -29.9451 71.0564 -49.3627 57.2187 0.0000 -81.9396 -52.6100 -3.2506 -6.5481 -0.0000 5.9181 0.0000 23.0049 -81.7596 -38.1922 -57.9677 0.0000 -88.8427 39.5617 22.9731 -9.7880 -0.0000
 26.8035 -0.8726 22.4341 1.0218 9.5215 3.1817 14.4758 -71.7020 15.9207 -180.0000 72.2514 180.0000 -0.0000 -20.9585 9.3593 0.0000 -31.2278 -0.0000 -27.9249 -69.2663 -23.1553 -180.0000 70.4995 180.0000 -0.0000 -21.3155 -6.4175 0.0000 -30.5559 -0.0000 27.8976 -1.1397 27.8867 -0.7521 -4.4251 3.5707 29.0388 -1.2369 46.4242 -0.8424 2.0721 -3.3149 -13.0830 -0.0000 -29.9578 71.0587 -49.3732 57.2184 0.0000 -81.9324 -52.5850 -3.1708 -6.5168 0.0000 5.9244 0.0000 22.9961 -81.7588 -38.1852 -57.9724 0.0000 -88.8452 39.5820 22.9171 -9.7583 0.0000
 26.7992 -0.8624 22.4351 1.0191 9.5426 3.1660 14.5141 -71.7275 15.9850 -180.0000 72.2494 180.0000 -0.0000 -20.9436 9.3651 0.0000 -31.2343 -0.0000 -27.9566 -69.2937 -23.1634 -180.0000 70.5195 180.0000 0.0000 -21.2659 -6.4137 0.0000 -30.6625 -0.0000 27.8964 -1.1311 27.8858 -0.7277 -4.4293 3.5607 29.0439 -1.2343 46.4253 -0.8340 2.0913 -3.2917 -13.0442 -0.0000 -29.9664 71.0548 -49.3774 57.2448 0.0000 -81.9402 -52.6060 -3.0995 -6.4853 -0.0000 5.9022 0.0000 22.9993 -81.7728 -38.1992 -57.9862 0.0000 -88.8266 39.5710 22.7793 -9.8282 0.0000
 26.7998 -0.8598 22.4351 1.0177 9.5462 3.1646 14.5765 -71.7221 16.0654 -180.0000 72.2517 180.0000 -0.0000 -20.9464 9.3459 0.0000 -31.2529 -0.0000 -27.9279 -69.3031 -23.1237 -180.0000 70.5152 180.0000 -0.0000 -21.2593 -6.4317 0.0000 -30.6351 -0.0000 27.8980 -1.1268 27.8860 -0.7268 -4.4280 3.5499 29.0501 -1.2287 46.4257 -0.8292 2.1129 -3.3476 -13.0301 -0.0000 -29.9774 71.0511 -49.3902 57.2411 0.0000 -81.9352 -52.5705 -3.0664 -6.4812 0.0000 5.9136 0.0000 22.9901 -81.7657 -38.1923 -57.9881 0.0000 -88.8338 39.5900 22.7591 -9.8054 -0.0000
 26.7994 -0.8485 22.4349 1.0131 9.5704 3.1520 14.5962 -71.7472 16.1108 -180.0000 72.2406 180.0000 -0.0000 -20.9580 9.3470 0.0000 -31.2243 -0.0000 -27.9791 -69.3214 -23.1545 -180.0000 70.5277 180.0000 0.0000 -21.2542 -6.4182 0.0000 -30.6696 -0.0000 27.8972 -1.1166 27.8866 -0.6943 -4.4347 3.5460 29.0530 -1.2266 46.4281 -0.8120 2.1546 -3.3144 -13.0020 -0.0000 -29.9733 71.0118 -49.4119 57.2299 0.0000 -81.9575 -52.5812 -3.0282 -6.4252 -0.0000 5.9001 0.0000 22.9924 -81.7801 -38.1868 -57.9934 0.0000 -88.8405 39.5622 22.6860 -9.8394 -0.0000
 26.7999 -0.8462 22.4346 1.0117 9.5739 3.1513 14.6523 -71.7425 16.1824 -180.0000 72.2432 180.0000 -0.0000 -20.9621 9.3259 0.0000 -31.2434 -0.0000 -27.9522 -69.3320 -23.1169 -180.0000 70.5261 180.0000 -0.0000 -21.2476 -6.4385 0.0000 -30.6433 -0.0000 27.8985 -1.1128 27.8862 -0.6932 -4.4330 3.5356 29.0597 -1.2215 46.4291 -0.8058 2.1749 -3.3677 -12.9928 -0.0000 -29.9828 71.0052 -49.4248 57.2234 0.0000 -81.9531 -52.5459 -3.0005 -6.4682 -0.0000 5.9116 0.0000 22.9825 -81.7734 -38.1773 -57.9934 0.0000 -88.8470 39.5770 22.6913 -9.8297 0.0000
 26.8005 -0.8430 22.4341 1.0105 9.5779 3.1492 14.7085 -71.7394 16.2536 -180.0000 72.2429 180.0000 -0.0000 -20.9656 9.3001 0.0000 -31.2620 -0.0000 -27.9317 -69.3406 -23.0857 -180.0000 70.5265 180.0000 -0.0000 -21.2490 -6.4609 0.0000 -30.6376 -0.0000 27.8996 -1.1080 27.8853 -0.6904 -4.4310 3.5263 29.0655 -1.2178 46.4299 -0.7836 2.1964 -3.3916 -12.9821 -0.0000 -29.9912 70.9919 -49.4386 57.2082 0.0000 -81.9557 -52.5454 -2.9823 -6.5007 -0.0000 5.9228 -0.0000 22.9730 -81.7680 -38.1670 -57.9910 0.0000 -88.8569 39.5709 22.6885 -9.8492 0.0000
 26.8034 -0.8322 22.4331 1.0053 9.5997 3.1385 14.7112 -71.7602 16.2793 -180.0000 72.2242 180.0000 -0.0000 -20.9943 9.3129 0.0000 -31.2081 -0.0000 -27.9984 -69.3476 -23.1335 -180.0000 70.5358 180.0000 -0.0000 -21.2481 -6.4308 0.0000 -30.6795 -0.0000 27.8996 -1.0982 27.8855 -0.6576 -4.4351 3.5279 29.0659 -1.2153 46.4331 -0.7465 2.2552 -3.3483 -12.9648 -0.0000 -29.9731 70.9344 -49.4697 57.1569 0.0000 -82.0125 -52.5209 -3.0452 -6.3886 -0.0000 5.9171 0.0000 22.9688 -81.7949 -38.1397 -57.9693 0.0000 -88.8826 39.5171 22.6375 -9.8062 0.0000
 26.8039 -0.8296 22.4324 1.0038 9.6029 3.1372 14.7599 -71.7564 16.3410 -180.0000 72.2265 180.0000 -0.0000 -20.9977 9.2863 0.0000 -31.2336 -0.0000 -27.9759 -69.3563 -23.1025 -180.0000 70.5341 180.0000 -0.0000 -21.2460 -6.4543 0.0000 -30.6623 -0.0000 27.9001 -1.0939 27.8842 -0.6566 -4.4340 3.5169 29.0708 -1.2106 46.4332 -0.7336 2.2703 -3.4021 -12.9622 -0.0000 -29.9812 70.9240 -49.4820 57.1467 0.0000 -82.0118 -52.5296 -3.0139 -6.4816 0.0000 5.9284 0.0000 22.9576 -81.7895 -38.1286 -57.9650 0.0000 -88.8895 39.5452 22.7019 -9.8278 0.0000
 26.8088 -0.8218 22.4305 0.9986 9.6231 3.1346 14.7738 -71.7735 16.3720 -180.0000 72.2073 180.0000 -0.0000 -21.0226 9.2808 0.0000 -31.2201 -0.0000 -28.0402 -69.3590 -23.1556 -180.0000 70.5295 180.0000 -0.0000 -21.2534 -6.4390 0.0000 -30.7044 -0.0000 27.8997 -1.0847 27.8834 -0.6308 -4.4417 3.5059 29.0728 -1.2078 46.4340 -0.7052 2.3013 -3.3682 -12.9614 -0.0000 -29.9691 70.8880 -49.5045 57.1034 0.0000 -82.0609 -52.5239 -3.1113 -6.3945 -0.0000 5.9234 0.0000 22.9461 -81.8025 -38.1090 -57.9226 0.0000 -88.9095 39.4995 22.6205 -9.7772 -0.0000
 26.8092 -0.8193 22.4297 0.9974 9.6262 3.1341 14.8153 -71.7711 16.4252 -180.0000 72.2090 180.0000 -0.0000 -21.0264 9.2577 0.0000 -31.2344 -0.0000 -28.0107 -69.3681 -23.1165 -180.0000 70.5257 180.0000 -0.0000 -21.2472 -6.4577 0.0000 -30.6831 -0.0000 27.9000 -1.0807 27.8816 -0.6297 -4.4404 3.4951 29.0771 -1.2037 46.4333 -0.6910 2.3122 -3.4198 -12.9616 -0.0000 -29.9759 70.8750 -49.5153 57.0889 0.0000 -82.0668 -52.5456 -3.0509 -6.4833 -0.0000 5.9329 0.0000 22.9354 -81.7980 -38.0982 -57.9173 -0.0000 -88.9141 39.5459 22.7097 -9.8158 0.0000
 26.8121 -0.8141 22.4276 0.9947 9.6357 3.1341 14.8330 -71.7801 16.4550 -180.0000 72.1918 180.0000 -0.0000 -21.0310 9.2376 0.0000 -31.2343 -0.0000 -28.0253 -69.3738 -23.1231 -180.0000 70.5195 180.0000 -0.0000 -21.2413 -6.4717 0.0000 -30.6954 -0.0000 27.9009 -1.0736 27.8790 -0.6186 -4.4420 3.4817 29.0809 -1.2013 46.4308 -0.6570 2.3221 -3.3844 -12.9597 -0.0000 -29.9738 70.8501 -49.5266 57.0467 0.0000 -82.1173 -52.5767 -3.0477 -6.3505 0.0000 5.9262 0.0000 22.9180 -81.8055 -38.0774 -57.8922 0.0000 -88.9207 39.4736 22.7115 -9.8039 0.0000
 26.8126 -0.8118 22.4265 0.9933 9.6389 3.1340 14.8580 -71.7809 16.4890 -180.0000 72.1931 180.0000 -0.0000 -21.0429 9.2315 0.0000 -31.2472 -0.0000 -28.0038 -69.3804 -23.0887 -180.0000 70.5122 180.0000 -0.0000 -21.2420 -6.4803 0.0000 -30.7068 -0.0000 27.9010 -1.0700 27.8771 -0.6161 -4.4403 3.4737 29.0848 -1.1977 46.4309 -0.6431 2.3299 -3.4334 -12.9579 -0.0000 -29.9774 70.8317 -49.5344 57.0244 0.0000 -82.1271 -52.5715 -3.0523 -6.4750 0.0000 5.9368 0.0000 22.9095 -81.7892 -38.0726 -57.8750 -0.0000 -88.9293 39.5659 22.7449 -9.8287 0.0000
 26.8165 -0.8031 22.4222 0.9889 9.6559 3.1417 14.8110 -71.8095 16.4564 -180.0000 72.1636 180.0000 -0.0000 -21.0787 9.2447 0.0000 -31.1930 -0.0000 -28.1065 -69.3799 -23.1791 -180.0000 70.4970 180.0000 -0.0000 -21.2551 -6.4577 0.0000 -30.7346 -0.0000 27.9011 -1.0603 27.8754 -0.5854 -4.4454 3.4613 29.0867 -1.1942 46.4293 -0.6363 2.3453 -3.4103 -12.9586 -0.0000 -29.9616 70.7730 -49.5417 56.9412 0.0000 -82.1988 -52.5207 -3.0772 -6.3197 0.0000 5.9168 -0.0000 22.8829 -81.7902 -38.0578 -57.8159 0.0000 -88.9476 39.5269 22.6867 -9.7297 0.0000
